# Blender 5.1.2
# www.blender.org
mtllib shadow.mtl
o Cube
v 0.000000 -1.000000 0.771573
v 0.570692 2.180618 0.000000
v -1.414214 -1.000000 0.000000
v 0.000000 2.180618 -0.276645
v 1.414214 -1.000000 0.000000
v -0.570692 2.180618 0.000000
v 0.000000 -1.000000 -0.771573
v 0.000000 2.180618 0.276645
v 0.000000 0.589424 0.276645
v -0.570692 0.589424 0.000000
v 0.000000 0.589424 -0.276645
v 0.570692 0.589424 0.000000
vn -0.4362 -0.0000 0.8998
vn 0.4362 -0.0000 0.8998
vn -0.4362 -0.0000 -0.8998
vn 0.4362 -0.0000 -0.8998
vn 0.4518 0.2531 0.8555
vn 0.4518 0.2531 -0.8555
vn -0.4518 0.2531 -0.8555
vn -0.4518 0.2531 0.8555
vt 0.587274 0.830404
vt 0.628556 0.815747
vt 0.628286 0.940760
vt 0.589742 0.934433
vt 0.676911 0.829347
vt 0.672114 0.935048
vt 0.628139 0.815747
vt 0.676494 0.829347
vt 0.671698 0.935048
vt 0.627869 0.940760
vt 0.586858 0.830404
vt 0.589325 0.934433
vt 0.739481 0.692161
vt 0.632805 0.694496
vt 0.632389 0.694496
vt 0.525824 0.696173
vt 0.739064 0.692161
vt 0.526241 0.696173
s 0
usemtl Material.002
f 10/1/1 9/2/1 8/3/1 6/4/1
f 9/2/2 12/5/2 2/6/2 8/3/2
f 11/7/3 10/8/3 6/9/3 4/10/3
f 12/11/4 11/7/4 4/10/4 2/12/4
f 5/13/5 12/5/5 9/2/5 1/14/5
f 7/15/6 11/7/6 12/11/6 5/16/6
f 3/17/7 10/8/7 11/7/7 7/15/7
f 1/14/8 9/2/8 10/1/8 3/18/8
o Cylinder
v 0.430967 1.972595 -0.191564
v 1.925577 0.645844 -0.191564
v 0.303795 1.829334 0.000000
v 1.798405 0.502582 0.000000
v 0.430967 1.972595 0.191564
v 1.925577 0.645844 0.191564
v 0.558139 2.115857 0.000000
v 2.052749 0.789105 0.000000
v -0.430967 1.972595 -0.191564
v -1.925577 0.645844 -0.191564
v -0.303795 1.829334 0.000000
v -1.798405 0.502582 0.000000
v -0.430967 1.972595 0.191564
v -1.925577 0.645844 0.191564
v -0.558139 2.115857 0.000000
v -2.052749 0.789105 0.000000
vn -0.4694 -0.5288 -0.7071
vn -0.4694 -0.5288 0.7071
vn 0.4694 0.5288 0.7071
vn 0.4694 0.5288 -0.7071
vn 0.4694 -0.5288 -0.7071
vn 0.4694 -0.5288 0.7071
vn -0.4694 0.5288 0.7071
vn -0.4694 0.5288 -0.7071
vt 0.372899 0.857483
vt 0.028893 0.895928
vt 0.036644 0.883561
vt 0.327000 0.823103
vt 0.374449 0.856041
vt 0.030443 0.894485
vt 0.038194 0.882118
vt 0.328551 0.821660
vt 0.372899 0.854598
vt 0.028893 0.893042
vt 0.036644 0.880675
vt 0.327000 0.820217
vt 0.372899 0.856255
vt 0.028893 0.894700
vt 0.036644 0.882333
vt 0.327000 0.821875
s 0
usemtl Material.002
f 13/19/9 14/20/9 16/21/9 15/22/9
f 15/23/10 16/24/10 18/25/10 17/26/10
f 17/27/11 18/28/11 20/29/11 19/30/11
f 19/31/12 20/32/12 14/33/12 13/34/12
f 21/19/13 23/22/13 24/21/13 22/20/13
f 23/23/14 25/26/14 26/25/14 24/24/14
f 25/27/15 27/30/15 28/29/15 26/28/15
f 27/31/16 21/34/16 22/33/16 28/32/16
o Cylinder.001
v 0.000000 1.991146 -0.123275
v 0.000000 2.449238 -0.123275
v 0.106759 1.991146 0.061637
v 0.106759 2.449238 0.061637
v -0.106759 1.991146 0.061637
v -0.106759 2.449238 0.061637
vn 0.8660 -0.0000 -0.5000
vn -0.0000 -0.0000 1.0000
vn -0.8660 -0.0000 -0.5000
vt 0.893566 0.663157
vt 0.893566 0.682453
vt 0.880701 0.682453
vt 0.880701 0.663157
vt 0.867837 0.682453
vt 0.867837 0.663157
vt 0.854972 0.682453
vt 0.854972 0.663157
s 0
usemtl Material.002
f 29/35/17 30/36/17 32/37/17 31/38/17
f 31/38/18 32/37/18 34/39/18 33/40/18
f 33/40/19 34/39/19 30/41/19 29/42/19
o Cube.001
v 0.148070 2.824859 0.246049
v 0.148070 3.747915 0.246049
v 0.148070 2.824859 -0.246049
v 0.148070 3.747915 -0.246049
v 0.824170 2.824859 0.246049
v 0.824170 3.747915 0.246049
v 0.824170 2.824859 -0.246049
v 0.824170 3.747915 -0.246049
v -0.715886 3.071602 -0.246049
v -0.116269 2.369824 -0.246049
v -0.715887 3.071602 0.246049
v -0.116270 2.369824 0.246049
v -1.229910 2.632407 -0.246049
v -0.630293 1.930629 -0.246049
v -1.229910 2.632407 0.246049
v -0.630293 1.930629 0.246049
v 0.344107 2.187752 0.246049
v 0.532518 3.091374 0.246049
v 0.344107 2.187752 -0.246049
v 0.532518 3.091374 -0.246049
v 1.005973 2.049748 0.246049
v 1.194384 2.953371 0.246049
v 1.005973 2.049748 -0.246049
v 1.194384 2.953371 -0.246049
v 0.338050 3.277821 -0.246049
v 0.338050 2.354764 -0.246049
v 0.338050 3.277821 0.246049
v 0.338050 2.354764 0.246049
v -0.338050 3.277821 -0.246049
v -0.338050 2.354764 -0.246049
v -0.338050 3.277821 0.246049
v -0.338050 2.354764 0.246049
v -1.200351 1.369838 0.246049
v -1.801853 2.070001 0.246049
v -1.200351 1.369838 -0.246049
v -1.801853 2.070001 -0.246049
v -0.687511 1.810413 0.246049
v -1.289012 2.510576 0.246049
v -0.687511 1.810413 -0.246049
v -1.289012 2.510576 -0.246049
vn -0.0000 -0.0000 1.0000
vn 0.7585 0.6516 -0.0000
vn -0.0000 -0.0000 -1.0000
vn -0.7585 -0.6516 -0.0000
vn -1.0000 -0.0000 -0.0000
vn 1.0000 -0.0000 -0.0000
vn 0.7603 0.6496 -0.0000
vn -0.7603 -0.6496 -0.0000
vn -0.9789 0.2041 -0.0000
vn 0.9789 -0.2041 -0.0000
vt 0.643859 0.331054
vt 0.661437 0.447941
vt 0.556442 0.445988
vt 0.560349 0.327148
vt 0.652420 0.333099
vt 0.669998 0.443845
vt 0.550159 0.441892
vt 0.554066 0.329193
vt 0.645457 0.328026
vt 0.663035 0.450244
vt 0.554758 0.448291
vt 0.558664 0.324120
vt 0.642747 0.334302
vt 0.660325 0.444040
vt 0.562366 0.442086
vt 0.566272 0.330396
vt 0.202379 0.321011
vt 0.159410 0.451392
vt 0.044229 0.451392
vt 0.053995 0.303433
vt 0.212233 0.322043
vt 0.169264 0.452423
vt 0.041941 0.452423
vt 0.051707 0.304464
vt 0.206755 0.322831
vt 0.163786 0.453212
vt 0.048606 0.453212
vt 0.058371 0.305253
vt 0.209895 0.320176
vt 0.166927 0.450556
vt 0.041651 0.450556
vt 0.051417 0.302598
vt 0.611623 0.051472
vt 0.683889 0.224546
vt 0.532662 0.251890
vt 0.520943 0.088581
vt 0.608412 0.052797
vt 0.680678 0.225872
vt 0.540205 0.253216
vt 0.528486 0.089907
vt 0.611791 0.052267
vt 0.684056 0.225341
vt 0.532829 0.252685
vt 0.521111 0.089376
vt 0.605915 0.052797
vt 0.678181 0.225872
vt 0.537871 0.253216
vt 0.526152 0.089907
vt 0.048445 0.248502
vt 0.038679 0.109422
vt 0.132136 0.072313
vt 0.155574 0.215299
vt 0.132071 0.075337
vt 0.155509 0.218323
vt 0.044532 0.251526
vt 0.034767 0.112446
vt 0.132192 0.072313
vt 0.155630 0.215299
vt 0.045746 0.248502
vt 0.035980 0.109422
vt 0.131949 0.069857
vt 0.155386 0.212843
vt 0.044410 0.246047
vt 0.034644 0.106967
vt 0.142710 0.538230
vt 0.166148 0.681805
vt 0.037573 0.679852
vt 0.053198 0.549949
vt 0.142389 0.528312
vt 0.165827 0.690529
vt 0.041573 0.688576
vt 0.057198 0.540031
vt 0.144368 0.536879
vt 0.167806 0.681779
vt 0.038261 0.679826
vt 0.053886 0.548598
vt 0.146727 0.523104
vt 0.166670 0.694027
vt 0.038933 0.689879
vt 0.058053 0.532627
s 0
usemtl Material.002
f 71/43/20 72/44/20 68/45/20 67/46/20
f 73/47/21 74/48/21 72/49/21 71/50/21
f 69/51/22 70/52/22 74/53/22 73/54/22
f 67/55/23 68/56/23 70/57/23 69/58/23
f 35/59/24 36/60/24 38/61/24 37/62/24
f 37/63/22 38/64/22 42/65/22 41/66/22
f 41/67/25 42/68/25 40/69/25 39/70/25
f 39/71/20 40/72/20 36/73/20 35/74/20
f 46/75/20 45/76/20 49/77/20 50/78/20
f 44/79/26 43/80/26 45/81/26 46/82/26
f 48/83/22 47/84/22 43/85/22 44/86/22
f 50/87/27 49/88/27 47/89/27 48/90/27
f 51/91/28 52/92/28 54/93/28 53/94/28
f 53/95/22 54/96/22 58/97/22 57/98/22
f 57/99/29 58/100/29 56/101/29 55/102/29
f 55/103/20 56/104/20 52/105/20 51/106/20
f 62/107/20 61/108/20 65/109/20 66/110/20
f 60/111/25 59/112/25 61/113/25 62/114/25
f 64/115/22 63/116/22 59/117/22 60/118/22
f 66/119/24 65/120/24 63/121/24 64/122/24
