# Blender 5.1.2
# www.blender.org
mtllib sun.mtl
o Cube
v 0.616268 -1.000000 0.651183
v 0.616268 3.254230 0.651183
v 0.074670 -1.000000 0.005563
v 0.074670 3.254230 0.005563
v 1.167199 -1.000000 -0.005563
v 1.167199 3.254230 -0.005563
v 0.625601 -1.000000 -0.651183
v 0.625601 3.254230 -0.651183
v -0.074670 -1.000000 -0.005563
v -0.074670 3.254230 -0.005563
v -0.616268 -1.000000 -0.651183
v -0.616268 3.254230 -0.651183
v -0.625601 -1.000000 0.651183
v -0.625601 3.254230 0.651183
v -1.167199 -1.000000 0.005563
v -1.167199 3.254230 0.005563
vn -0.7661 -0.0000 0.6427
vn -0.7661 -0.0000 -0.6427
vn 0.7661 -0.0000 -0.6427
vn 0.7661 -0.0000 0.6427
vt 0.500345 0.043425
vt 0.422822 0.403515
vt 0.394803 0.397181
vt 0.472326 0.037091
vt 0.528507 0.049791
vt 0.450984 0.409881
vt 0.422482 0.403438
vt 0.500005 0.043348
vt 0.394462 0.397105
vt 0.471986 0.037014
vt 0.528848 0.049868
vt 0.451324 0.409958
vt 0.470376 0.037738
vt 0.498396 0.044072
vt 0.420872 0.404163
vt 0.392853 0.397829
vt 0.526898 0.050515
vt 0.449375 0.410606
vt 0.471305 0.036860
vt 0.499325 0.043194
vt 0.421801 0.403285
vt 0.393782 0.396951
vt 0.527827 0.049637
vt 0.450303 0.409728
s 0
usemtl Material.001
f 1/1/1 2/2/1 4/3/1 3/4/1
f 3/5/2 4/6/2 8/7/2 7/8/2
f 7/8/3 8/7/3 6/9/3 5/10/3
f 5/11/4 6/12/4 2/2/4 1/1/4
f 9/13/3 11/14/3 12/15/3 10/16/3
f 11/14/2 15/17/2 16/18/2 12/15/2
f 15/19/1 13/20/1 14/21/1 16/22/1
f 13/20/4 9/23/4 10/24/4 14/21/4
o Cube.001
v 1.406462 7.950457 -0.808147
v 1.406462 7.950457 0.808147
v -1.406462 2.933771 0.808147
v -1.406462 7.950457 0.808147
v -1.406462 2.933771 -0.808147
v -1.406462 7.950457 -0.808147
v 1.406462 2.933771 0.808147
v 1.406462 7.950457 0.808147
v 1.406462 2.933771 -0.808147
v 1.406462 7.950457 -0.808147
vn -1.0000 -0.0000 -0.0000
vn -0.0000 -0.0000 -1.0000
vn 1.0000 -0.0000 -0.0000
vn -0.0000 -0.0000 1.0000
vt 0.422850 0.947146
vt 0.444953 0.617041
vt 0.567241 0.626605
vt 0.571813 0.961562
vt 0.422599 0.946557
vt 0.444702 0.615719
vt 0.564883 0.625283
vt 0.569455 0.960973
vt 0.578583 0.964274
vt 0.568152 0.629471
vt 0.446333 0.621860
vt 0.423455 0.948308
vt 0.422662 0.942508
vt 0.444765 0.622201
vt 0.565448 0.629812
vt 0.575880 0.956925
s 0
usemtl Material.001
f 19/25/5 20/26/5 22/27/5 21/28/5
f 21/29/6 22/30/6 26/31/6 25/32/6
f 25/33/7 26/34/7 24/35/7 23/36/7
f 23/37/8 24/38/8 20/39/8 19/40/8
l 17 18
o Cylinder
v 3.806499 3.421642 -0.783612
v 0.774009 6.967936 -0.393295
v 4.296236 3.810066 -0.223990
v 1.263745 7.356359 0.166328
v 3.930573 3.378439 0.395591
v 0.898083 6.924732 0.785909
v 3.440838 2.990016 -0.164031
v 0.408347 6.536309 0.226287
v -3.806499 3.421642 -0.783612
v -0.774009 6.967936 -0.393295
v -4.296236 3.810066 -0.223990
v -1.263745 7.356359 0.166328
v -3.930573 3.378439 0.395591
v -0.898083 6.924732 0.785909
v -3.440838 2.990016 -0.164031
v -0.408347 6.536309 0.226287
vn 0.4668 0.4808 -0.7422
vn 0.6028 0.4424 0.6640
vn -0.4668 -0.4808 0.7422
vn -0.6028 -0.4424 -0.6640
vn -0.4668 0.4808 -0.7422
vn -0.6028 0.4424 0.6640
vn 0.4668 -0.4808 0.7422
vn 0.6028 -0.4424 -0.6640
vt 0.295923 0.433432
vt 0.108617 0.433432
vt 0.107670 0.399884
vt 0.294977 0.399884
vt 0.107493 0.400140
vt 0.294799 0.400140
vt 0.293262 0.433666
vt 0.105955 0.433666
vt 0.288912 0.467214
vt 0.101606 0.467214
vt 0.294057 0.466958
vt 0.106751 0.466958
vt 0.821606 0.504397
vt 0.829494 0.535713
vt 0.656033 0.584650
vt 0.648144 0.553335
vt 0.809438 0.474055
vt 0.819621 0.504701
vt 0.646160 0.553639
vt 0.635977 0.522992
vt 0.829263 0.535522
vt 0.655802 0.584460
vt 0.814270 0.472948
vt 0.640809 0.521885
s 0
usemtl Material.001
f 27/41/9 28/42/9 30/43/9 29/44/9
f 29/45/10 30/46/10 32/47/10 31/48/10
f 31/48/11 32/47/11 34/49/11 33/50/11
f 33/51/12 34/52/12 28/42/12 27/41/12
f 35/53/13 37/54/13 38/55/13 36/56/13
f 37/57/14 39/58/14 40/59/14 38/60/14
f 39/58/15 41/61/15 42/62/15 40/59/15
f 41/63/16 35/53/16 36/56/16 42/64/16
o Cylinder.001
v -0.075875 7.450657 -0.333879
v -0.051289 8.831653 -0.074792
v 0.244291 7.350471 0.169758
v 0.268877 8.731466 0.428845
v -0.360407 7.357076 0.191933
v -0.335820 8.738071 0.451020
vn 0.8484 0.0830 -0.5228
vn 0.0340 -0.1849 0.9822
vn -0.8824 0.1019 -0.4594
vt 0.492137 0.718270
vt 0.491528 0.840955
vt 0.488276 0.800507
vt 0.494923 0.691113
vt 0.498611 0.803677
vt 0.498611 0.715481
s 0
usemtl Material.001
f 43/65/17 44/66/17 46/67/17 45/68/17
f 45/68/18 46/67/18 48/69/18 47/70/18
f 47/70/19 48/69/19 44/66/19 43/65/19
o Cube.002
v -0.930715 8.322152 0.628765
v -0.930715 10.653750 0.628765
v -0.930715 8.322152 -0.628765
v -0.930715 10.653750 -0.628765
v 0.930715 8.322152 0.628765
v 0.930715 10.653750 0.628765
v 0.930715 8.322152 -0.628765
v 0.930715 10.653750 -0.628765
vn -1.0000 -0.0000 -0.0000
vn -0.0000 -0.0000 -1.0000
vn 1.0000 -0.0000 -0.0000
vn -0.0000 -0.0000 1.0000
vt 0.320791 0.720071
vt 0.313955 0.941227
vt 0.111194 0.914859
vt 0.084827 0.720071
vt 0.319322 0.719881
vt 0.312487 0.941037
vt 0.114221 0.914670
vt 0.087853 0.719881
vt 0.292212 0.743977
vt 0.318579 0.938766
vt 0.087539 0.938766
vt 0.094375 0.717610
vt 0.292302 0.747479
vt 0.318669 0.942267
vt 0.087201 0.942267
vt 0.094037 0.721111
s 0
usemtl Material.001
f 49/71/20 50/72/20 52/73/20 51/74/20
f 51/75/21 52/76/21 56/77/21 55/78/21
f 55/79/22 56/80/22 54/81/22 53/82/22
f 53/83/23 54/84/23 50/85/23 49/86/23
